<svg width="58" height="47" viewBox="0 0 58 47" fill="none" xmlns="http://www.w3.org/2000/svg">
<g id="fa-solid:user-friends">
<g id="Vector">
<path d="M17.4 23.2C23.0097 23.2 27.55 18.6596 27.55 13.05C27.55 7.44028 23.0097 2.89996 17.4 2.89996C11.7903 2.89996 7.25 7.44028 7.25 13.05C7.25 18.6596 11.7903 23.2 17.4 23.2ZM24.36 26.1H23.6078C21.7228 27.0062 19.6294 27.55 17.4 27.55C15.1706 27.55 13.0863 27.0062 11.1922 26.1H10.44C4.67625 26.1 0 30.7762 0 36.54V39.15C0 41.5515 1.94844 43.5 4.35 43.5H30.45C32.8516 43.5 34.8 41.5515 34.8 39.15V36.54C34.8 30.7762 30.1238 26.1 24.36 26.1ZM43.5 23.2C48.3031 23.2 52.2 19.3031 52.2 14.5C52.2 9.69684 48.3031 5.79996 43.5 5.79996C38.6969 5.79996 34.8 9.69684 34.8 14.5C34.8 19.3031 38.6969 23.2 43.5 23.2ZM47.85 26.1H47.5056C46.2459 26.535 44.9137 26.825 43.5 26.825C42.0863 26.825 40.7541 26.535 39.4944 26.1H39.15C37.3013 26.1 35.5975 26.6346 34.1022 27.4956C36.3134 29.879 37.7 33.0418 37.7 36.54V40.02C37.7 40.2193 37.6547 40.4096 37.6456 40.6H53.65C56.0516 40.6 58 38.6515 58 36.25C58 30.6403 53.4597 26.1 47.85 26.1Z" fill="white"/>
<path d="M17.4 23.2C23.0097 23.2 27.55 18.6596 27.55 13.05C27.55 7.44028 23.0097 2.89996 17.4 2.89996C11.7903 2.89996 7.25 7.44028 7.25 13.05C7.25 18.6596 11.7903 23.2 17.4 23.2ZM24.36 26.1H23.6078C21.7228 27.0062 19.6294 27.55 17.4 27.55C15.1706 27.55 13.0863 27.0062 11.1922 26.1H10.44C4.67625 26.1 0 30.7762 0 36.54V39.15C0 41.5515 1.94844 43.5 4.35 43.5H30.45C32.8516 43.5 34.8 41.5515 34.8 39.15V36.54C34.8 30.7762 30.1238 26.1 24.36 26.1ZM43.5 23.2C48.3031 23.2 52.2 19.3031 52.2 14.5C52.2 9.69684 48.3031 5.79996 43.5 5.79996C38.6969 5.79996 34.8 9.69684 34.8 14.5C34.8 19.3031 38.6969 23.2 43.5 23.2ZM47.85 26.1H47.5056C46.2459 26.535 44.9137 26.825 43.5 26.825C42.0863 26.825 40.7541 26.535 39.4944 26.1H39.15C37.3013 26.1 35.5975 26.6346 34.1022 27.4956C36.3134 29.879 37.7 33.0418 37.7 36.54V40.02C37.7 40.2193 37.6547 40.4096 37.6456 40.6H53.65C56.0516 40.6 58 38.6515 58 36.25C58 30.6403 53.4597 26.1 47.85 26.1Z" fill="url(#paint0_radial_2_104)"/>
</g>
</g>
<defs>
<radialGradient id="paint0_radial_2_104" cx="0" cy="0" r="1" gradientUnits="userSpaceOnUse" gradientTransform="translate(29 23.2) rotate(70.4532) scale(39.3879 72.1783)">
<stop stop-color="#FFC107"/>
<stop offset="1" stop-color="#FFDB6F"/>
</radialGradient>
</defs>
</svg>
