<svg width="63" height="58" viewBox="0 0 63 58" fill="none" xmlns="http://www.w3.org/2000/svg">
<g id="Vector">
<path d="M31.5 57.8025L26.9325 53.6445C10.71 38.934 0 29.2005 0 17.325C0 7.5915 7.623 0 17.325 0C22.806 0 28.0665 2.5515 31.5 6.552C34.9335 2.5515 40.194 0 45.675 0C55.377 0 63 7.5915 63 17.325C63 29.2005 52.29 38.934 36.0675 53.6445L31.5 57.8025Z" fill="white"/>
<path d="M31.5 57.8025L26.9325 53.6445C10.71 38.934 0 29.2005 0 17.325C0 7.5915 7.623 0 17.325 0C22.806 0 28.0665 2.5515 31.5 6.552C34.9335 2.5515 40.194 0 45.675 0C55.377 0 63 7.5915 63 17.325C63 29.2005 52.29 38.934 36.0675 53.6445L31.5 57.8025Z" fill="url(#paint0_radial_8_413)"/>
</g>
<defs>
<radialGradient id="paint0_radial_8_413" cx="0" cy="0" r="1" gradientUnits="userSpaceOnUse" gradientTransform="translate(31.5 28.9012) rotate(74.8438) scale(54.7494 80.3014)">
<stop stop-color="#FFC107"/>
<stop offset="1" stop-color="#FFDB6F"/>
</radialGradient>
</defs>
</svg>
