<svg aria-hidden="true" version="1.1" xmlns="http://www.w3.org/2000/svg" xmlns:xlink="http://www.w3.org/1999/xlink">
<defs>

<!-- friends -->
<symbol id="icons-friends" viewBox="0 0 40 32">
<path d="M11.847 15.796c3.819 0 6.911-3.091 6.911-6.911s-3.091-6.911-6.911-6.911-6.911 3.091-6.911 6.911c0 3.819 3.091 6.911 6.911 6.911zM16.586 17.77h-0.512c-1.283 0.617-2.709 0.987-4.227 0.987s-2.937-0.37-4.227-0.987h-0.512c-3.924 0-7.108 3.184-7.108 7.108v1.777c0 1.635 1.327 2.962 2.962 2.962h17.77c1.635 0 2.962-1.327 2.962-2.962v-1.777c0-3.924-3.184-7.108-7.108-7.108zM29.617 15.796c3.27 0 5.923-2.653 5.923-5.923s-2.653-5.923-5.923-5.923-5.923 2.653-5.923 5.923c0 3.27 2.653 5.923 5.923 5.923zM32.579 17.77h-0.234c-0.858 0.296-1.765 0.494-2.727 0.494s-1.87-0.197-2.727-0.494h-0.235c-1.259 0-2.419 0.364-3.437 0.95 1.506 1.623 2.45 3.776 2.45 6.158v2.369c0 0.136-0.031 0.265-0.037 0.395h10.897c1.635 0 2.962-1.327 2.962-2.962 0-3.819-3.091-6.911-6.911-6.911z"></path>
<path d="M11.847 15.796c3.819 0 6.911-3.091 6.911-6.911s-3.091-6.911-6.911-6.911-6.911 3.091-6.911 6.911c0 3.819 3.091 6.911 6.911 6.911zM16.586 17.77h-0.512c-1.283 0.617-2.709 0.987-4.227 0.987s-2.937-0.37-4.227-0.987h-0.512c-3.924 0-7.108 3.184-7.108 7.108v1.777c0 1.635 1.327 2.962 2.962 2.962h17.77c1.635 0 2.962-1.327 2.962-2.962v-1.777c0-3.924-3.184-7.108-7.108-7.108zM29.617 15.796c3.27 0 5.923-2.653 5.923-5.923s-2.653-5.923-5.923-5.923-5.923 2.653-5.923 5.923c0 3.27 2.653 5.923 5.923 5.923zM32.579 17.77h-0.234c-0.858 0.296-1.765 0.494-2.727 0.494s-1.87-0.197-2.727-0.494h-0.235c-1.259 0-2.419 0.364-3.437 0.95 1.506 1.623 2.45 3.776 2.45 6.158v2.369c0 0.136-0.031 0.265-0.037 0.395h10.897c1.635 0 2.962-1.327 2.962-2.962 0-3.819-3.091-6.911-6.911-6.911z"></path>
</symbol>

<!-- home -->
<symbol id="icons-home" viewBox="0 0 36 32">
<path d="M35.987 15.969c0 1.125-0.938 2.006-2 2.006h-2l0.044 10.012c0 0.169-0.013 0.337-0.031 0.506v1.006c0 1.381-1.119 2.5-2.5 2.5h-1c-0.069 0-0.137 0-0.206-0.006-0.087 0.006-0.175 0.006-0.262 0.006h-3.531c-1.381 0-2.5-1.119-2.5-2.5v-5.5c0-1.106-0.894-2-2-2h-4c-1.106 0-2 0.894-2 2v5.5c0 1.381-1.119 2.5-2.5 2.5h-3.494c-0.094 0-0.188-0.006-0.281-0.012-0.075 0.006-0.15 0.012-0.225 0.012h-1c-1.381 0-2.5-1.119-2.5-2.5v-7c0-0.056 0-0.119 0.006-0.175v-4.35h-2.006c-1.125 0-2-0.875-2-2.006 0-0.563 0.188-1.063 0.625-1.5l16.025-13.969c0.438-0.438 0.938-0.5 1.375-0.5s0.938 0.125 1.313 0.438l15.962 14.031c0.5 0.438 0.75 0.938 0.688 1.5z"></path>
</symbol>

<!-- wallet -->
<symbol id="icons-wallet" viewBox="0 0 32 32">
<path d="M24.5 17c0 0.396-0.117 0.782-0.337 1.111s-0.532 0.585-0.898 0.737c-0.365 0.151-0.768 0.191-1.156 0.114s-0.744-0.268-1.024-0.547c-0.28-0.28-0.47-0.636-0.547-1.024s-0.038-0.79 0.114-1.156c0.151-0.365 0.408-0.678 0.737-0.898s0.716-0.337 1.111-0.337c0.53 0 1.039 0.211 1.414 0.586s0.586 0.884 0.586 1.414zM29.5 12.5v10c0 1.061-0.421 2.078-1.172 2.828s-1.768 1.172-2.828 1.172h-18c-1.061 0-2.078-0.421-2.828-1.172s-1.172-1.768-1.172-2.828v-14.885c-0.015-0.535 0.077-1.067 0.271-1.566s0.486-0.953 0.859-1.337 0.819-0.689 1.312-0.897c0.493-0.208 1.023-0.315 1.558-0.315h16.5c0.398 0 0.779 0.158 1.061 0.439s0.439 0.663 0.439 1.061c0 0.398-0.158 0.779-0.439 1.061s-0.663 0.439-1.061 0.439h-16.5c-0.134-0-0.267 0.027-0.39 0.079s-0.235 0.129-0.329 0.225c-0.093 0.096-0.166 0.21-0.215 0.336s-0.071 0.259-0.067 0.393v0.010c0.021 0.265 0.143 0.512 0.34 0.689s0.455 0.274 0.72 0.268h17.94c1.061 0 2.078 0.421 2.828 1.172s1.172 1.768 1.172 2.828zM26.5 12.5c0-0.265-0.105-0.52-0.293-0.707s-0.442-0.293-0.707-0.293h-17.94c-0.358 0-0.714-0.045-1.060-0.135v11.135c0 0.265 0.105 0.52 0.293 0.707s0.442 0.293 0.707 0.293h18c0.265 0 0.52-0.105 0.707-0.293s0.293-0.442 0.293-0.707v-10z"></path>
<path d="M24.5 17c0 0.396-0.117 0.782-0.337 1.111s-0.532 0.585-0.898 0.737c-0.365 0.151-0.768 0.191-1.156 0.114s-0.744-0.268-1.024-0.547c-0.28-0.28-0.47-0.636-0.547-1.024s-0.038-0.79 0.114-1.156c0.151-0.365 0.408-0.678 0.737-0.898s0.716-0.337 1.111-0.337c0.53 0 1.039 0.211 1.414 0.586s0.586 0.884 0.586 1.414zM29.5 12.5v10c0 1.061-0.421 2.078-1.172 2.828s-1.768 1.172-2.828 1.172h-18c-1.061 0-2.078-0.421-2.828-1.172s-1.172-1.768-1.172-2.828v-14.885c-0.015-0.535 0.077-1.067 0.271-1.566s0.486-0.953 0.859-1.337 0.819-0.689 1.312-0.897c0.493-0.208 1.023-0.315 1.558-0.315h16.5c0.398 0 0.779 0.158 1.061 0.439s0.439 0.663 0.439 1.061c0 0.398-0.158 0.779-0.439 1.061s-0.663 0.439-1.061 0.439h-16.5c-0.134-0-0.267 0.027-0.39 0.079s-0.235 0.129-0.329 0.225c-0.093 0.096-0.166 0.21-0.215 0.336s-0.071 0.259-0.067 0.393v0.010c0.021 0.265 0.143 0.512 0.34 0.689s0.455 0.274 0.72 0.268h17.94c1.061 0 2.078 0.421 2.828 1.172s1.172 1.768 1.172 2.828zM26.5 12.5c0-0.265-0.105-0.52-0.293-0.707s-0.442-0.293-0.707-0.293h-17.94c-0.358 0-0.714-0.045-1.060-0.135v11.135c0 0.265 0.105 0.52 0.293 0.707s0.442 0.293 0.707 0.293h18c0.265 0 0.52-0.105 0.707-0.293s0.293-0.442 0.293-0.707v-10z"></path>
</symbol>

<!-- missions -->
<symbol id="icons-missions" viewBox="0 0 32 32">
<path d="M26.251 0.866c-0.049-0.197-0.149-0.377-0.29-0.522s-0.318-0.25-0.513-0.304c-0.195-0.054-0.401-0.056-0.597-0.004s-0.374 0.154-0.517 0.297l-4.571 4.571c-0.139 0.14-0.24 0.313-0.293 0.503s-0.055 0.391-0.007 0.582l0.823 3.301c-0.011 0.011-0.021 0.021-0.032 0.032l-5.465 5.465c-0.303 0.325-0.468 0.755-0.46 1.199s0.188 0.868 0.502 1.182c0.314 0.314 0.738 0.494 1.182 0.502s0.874-0.157 1.199-0.46l5.47-5.463c0.011-0.011 0.021-0.023 0.032-0.034l3.298 0.825c0.191 0.048 0.392 0.046 0.582-0.007s0.364-0.153 0.503-0.293l4.571-4.571c0.144-0.143 0.247-0.322 0.299-0.518s0.051-0.402-0.004-0.598c-0.054-0.195-0.16-0.373-0.305-0.514s-0.326-0.241-0.523-0.29l-3.906-0.974-0.978-3.909zM16.724 1.735c0.031 0.453-0.119 0.901-0.417 1.244s-0.721 0.553-1.174 0.585c-2.388 0.166-4.678 1.013-6.599 2.442s-3.391 3.379-4.235 5.619c-0.845 2.24-1.029 4.675-0.53 7.016s1.659 4.49 3.343 6.191c1.684 1.701 3.821 2.883 6.158 3.405s4.773 0.363 7.021-0.459c2.248-0.822 4.213-2.272 5.662-4.178s2.319-4.188 2.508-6.574c0.036-0.453 0.251-0.874 0.597-1.169s0.795-0.441 1.249-0.405c0.453 0.036 0.874 0.251 1.169 0.597s0.441 0.795 0.405 1.249c-0.242 3.040-1.352 5.948-3.197 8.376s-4.349 4.276-7.214 5.323c-2.865 1.047-5.97 1.25-8.946 0.585s-5.7-2.171-7.846-4.339-3.624-4.906-4.26-7.889c-0.636-2.983-0.401-6.086 0.675-8.94s2.949-5.339 5.396-7.16c2.447-1.821 5.365-2.901 8.408-3.113 0.453-0.031 0.901 0.119 1.244 0.417s0.553 0.723 0.585 1.176zM15.188 9.275c0.082 0.21 0.122 0.433 0.118 0.659s-0.053 0.447-0.143 0.653c-0.090 0.206-0.22 0.393-0.383 0.549s-0.354 0.279-0.563 0.361c-0.75 0.294-1.414 0.77-1.934 1.386s-0.877 1.35-1.041 2.139c-0.164 0.788-0.129 1.605 0.102 2.377s0.65 1.473 1.221 2.042c0.57 0.569 1.273 0.986 2.045 1.215s1.589 0.261 2.377 0.095c0.788-0.166 1.522-0.526 2.136-1.047s1.088-1.187 1.38-1.938c0.082-0.21 0.204-0.401 0.36-0.564s0.342-0.293 0.548-0.384 0.428-0.14 0.653-0.145c0.225-0.005 0.449 0.035 0.659 0.116s0.402 0.204 0.564 0.36c0.163 0.156 0.293 0.342 0.384 0.548s0.14 0.428 0.145 0.653-0.035 0.449-0.116 0.659c-0.498 1.282-1.308 2.419-2.357 3.308s-2.302 1.504-3.648 1.788c-1.346 0.284-2.741 0.228-4.059-0.163s-2.519-1.104-3.492-2.075-1.69-2.17-2.084-3.487c-0.394-1.317-0.453-2.712-0.173-4.059s0.892-2.601 1.78-3.652c0.887-1.050 2.023-1.863 3.303-2.365 0.423-0.165 0.895-0.156 1.311 0.027s0.743 0.522 0.909 0.945z"></path>
<path d="M26.251 0.866c-0.049-0.197-0.149-0.377-0.29-0.522s-0.318-0.25-0.513-0.304c-0.195-0.054-0.401-0.056-0.597-0.004s-0.374 0.154-0.517 0.297l-4.571 4.571c-0.139 0.14-0.24 0.313-0.293 0.503s-0.055 0.391-0.007 0.582l0.823 3.301c-0.011 0.011-0.021 0.021-0.032 0.032l-5.465 5.465c-0.303 0.325-0.468 0.755-0.46 1.199s0.188 0.868 0.502 1.182c0.314 0.314 0.738 0.494 1.182 0.502s0.874-0.157 1.199-0.46l5.47-5.463c0.011-0.011 0.021-0.023 0.032-0.034l3.298 0.825c0.191 0.048 0.392 0.046 0.582-0.007s0.364-0.153 0.503-0.293l4.571-4.571c0.144-0.143 0.247-0.322 0.299-0.518s0.051-0.402-0.004-0.598c-0.054-0.195-0.16-0.373-0.305-0.514s-0.326-0.241-0.523-0.29l-3.906-0.974-0.978-3.909zM16.724 1.735c0.031 0.453-0.119 0.901-0.417 1.244s-0.721 0.553-1.174 0.585c-2.388 0.166-4.678 1.013-6.599 2.442s-3.391 3.379-4.235 5.619c-0.845 2.24-1.029 4.675-0.53 7.016s1.659 4.49 3.343 6.191c1.684 1.701 3.821 2.883 6.158 3.405s4.773 0.363 7.021-0.459c2.248-0.822 4.213-2.272 5.662-4.178s2.319-4.188 2.508-6.574c0.036-0.453 0.251-0.874 0.597-1.169s0.795-0.441 1.249-0.405c0.453 0.036 0.874 0.251 1.169 0.597s0.441 0.795 0.405 1.249c-0.242 3.040-1.352 5.948-3.197 8.376s-4.349 4.276-7.214 5.323c-2.865 1.047-5.97 1.25-8.946 0.585s-5.7-2.171-7.846-4.339-3.624-4.906-4.26-7.889c-0.636-2.983-0.401-6.086 0.675-8.94s2.949-5.339 5.396-7.16c2.447-1.821 5.365-2.901 8.408-3.113 0.453-0.031 0.901 0.119 1.244 0.417s0.553 0.723 0.585 1.176zM15.188 9.275c0.082 0.21 0.122 0.433 0.118 0.659s-0.053 0.447-0.143 0.653c-0.090 0.206-0.22 0.393-0.383 0.549s-0.354 0.279-0.563 0.361c-0.75 0.294-1.414 0.77-1.934 1.386s-0.877 1.35-1.041 2.139c-0.164 0.788-0.129 1.605 0.102 2.377s0.65 1.473 1.221 2.042c0.57 0.569 1.273 0.986 2.045 1.215s1.589 0.261 2.377 0.095c0.788-0.166 1.522-0.526 2.136-1.047s1.088-1.187 1.38-1.938c0.082-0.21 0.204-0.401 0.36-0.564s0.342-0.293 0.548-0.384 0.428-0.14 0.653-0.145c0.225-0.005 0.449 0.035 0.659 0.116s0.402 0.204 0.564 0.36c0.163 0.156 0.293 0.342 0.384 0.548s0.14 0.428 0.145 0.653-0.035 0.449-0.116 0.659c-0.498 1.282-1.308 2.419-2.357 3.308s-2.302 1.504-3.648 1.788c-1.346 0.284-2.741 0.228-4.059-0.163s-2.519-1.104-3.492-2.075-1.69-2.17-2.084-3.487c-0.394-1.317-0.453-2.712-0.173-4.059s0.892-2.601 1.78-3.652c0.887-1.050 2.023-1.863 3.303-2.365 0.423-0.165 0.895-0.156 1.311 0.027s0.743 0.522 0.909 0.945z"></path>
</symbol>

<!-- heart -->
<symbol id="icons-heart" viewBox="0 0 35 32">
<path d="M17.379 31.891l-2.52-2.294c-8.95-8.116-14.859-13.486-14.859-20.038 0-5.37 4.206-9.559 9.559-9.559 3.024 0 5.926 1.408 7.821 3.615 1.894-2.207 4.797-3.615 7.821-3.615 5.353 0 9.559 4.188 9.559 9.559 0 6.552-5.909 11.922-14.859 20.038l-2.52 2.294z"></path>
<path d="M17.379 31.891l-2.52-2.294c-8.95-8.116-14.859-13.486-14.859-20.038 0-5.37 4.206-9.559 9.559-9.559 3.024 0 5.926 1.408 7.821 3.615 1.894-2.207 4.797-3.615 7.821-3.615 5.353 0 9.559 4.188 9.559 9.559 0 6.552-5.909 11.922-14.859 20.038l-2.52 2.294z"></path>
</symbol>

<!-- message -->
<symbol id="icons-message" viewBox="0 0 32 32">
<path d="M16 0.547c-2.668-0.001-5.29 0.69-7.613 2.003s-4.264 3.206-5.638 5.493-2.132 4.891-2.201 7.558c-0.069 2.667 0.554 5.306 1.808 7.661l-1.686 5.059c-0.14 0.419-0.16 0.868-0.059 1.298s0.321 0.823 0.633 1.135c0.312 0.312 0.705 0.531 1.135 0.633s0.879 0.081 1.298-0.059l5.059-1.686c2.072 1.102 4.369 1.718 6.715 1.8s4.68-0.371 6.824-1.325c2.145-0.954 4.044-2.385 5.553-4.182s2.589-3.916 3.158-6.193c0.569-2.277 0.611-4.654 0.123-6.951s-1.491-4.451-2.936-6.301-3.292-3.347-5.401-4.377c-2.109-1.030-4.426-1.565-6.773-1.566zM9.462 17.783c-0.353 0-0.697-0.105-0.991-0.3s-0.522-0.474-0.657-0.8-0.17-0.684-0.101-1.030c0.069-0.346 0.239-0.664 0.488-0.913s0.567-0.419 0.913-0.488c0.346-0.069 0.704-0.033 1.030 0.101s0.604 0.363 0.8 0.657c0.196 0.293 0.3 0.638 0.3 0.991 0 0.473-0.188 0.926-0.522 1.261s-0.788 0.522-1.261 0.522zM16 17.783c-0.353 0-0.697-0.105-0.991-0.3s-0.522-0.474-0.657-0.8c-0.135-0.326-0.17-0.684-0.101-1.030s0.239-0.664 0.488-0.913 0.567-0.419 0.913-0.488c0.346-0.069 0.704-0.033 1.030 0.101s0.604 0.363 0.8 0.657c0.196 0.293 0.3 0.638 0.3 0.991 0 0.473-0.188 0.926-0.522 1.261s-0.788 0.522-1.261 0.522zM22.538 17.783c-0.353 0-0.697-0.105-0.991-0.3s-0.522-0.474-0.657-0.8-0.17-0.684-0.102-1.030c0.069-0.346 0.239-0.664 0.488-0.913s0.567-0.419 0.913-0.488c0.346-0.069 0.704-0.033 1.030 0.101s0.604 0.363 0.8 0.657c0.196 0.293 0.3 0.638 0.3 0.991 0 0.473-0.188 0.926-0.522 1.261s-0.788 0.522-1.261 0.522z"></path>
<path d="M16 0.547c-2.668-0.001-5.29 0.69-7.613 2.003s-4.264 3.206-5.638 5.493-2.132 4.891-2.201 7.558c-0.069 2.667 0.554 5.306 1.808 7.661l-1.686 5.059c-0.14 0.419-0.16 0.868-0.059 1.298s0.321 0.823 0.633 1.135c0.312 0.312 0.705 0.531 1.135 0.633s0.879 0.081 1.298-0.059l5.059-1.686c2.072 1.102 4.369 1.718 6.715 1.8s4.68-0.371 6.824-1.325c2.145-0.954 4.044-2.385 5.553-4.182s2.589-3.916 3.158-6.193c0.569-2.277 0.611-4.654 0.123-6.951s-1.491-4.451-2.936-6.301-3.292-3.347-5.401-4.377c-2.109-1.030-4.426-1.565-6.773-1.566zM9.462 17.783c-0.353 0-0.697-0.105-0.991-0.3s-0.522-0.474-0.657-0.8-0.17-0.684-0.101-1.030c0.069-0.346 0.239-0.664 0.488-0.913s0.567-0.419 0.913-0.488c0.346-0.069 0.704-0.033 1.030 0.101s0.604 0.363 0.8 0.657c0.196 0.293 0.3 0.638 0.3 0.991 0 0.473-0.188 0.926-0.522 1.261s-0.788 0.522-1.261 0.522zM16 17.783c-0.353 0-0.697-0.105-0.991-0.3s-0.522-0.474-0.657-0.8c-0.135-0.326-0.17-0.684-0.101-1.030s0.239-0.664 0.488-0.913 0.567-0.419 0.913-0.488c0.346-0.069 0.704-0.033 1.030 0.101s0.604 0.363 0.8 0.657c0.196 0.293 0.3 0.638 0.3 0.991 0 0.473-0.188 0.926-0.522 1.261s-0.788 0.522-1.261 0.522zM22.538 17.783c-0.353 0-0.697-0.105-0.991-0.3s-0.522-0.474-0.657-0.8-0.17-0.684-0.102-1.030c0.069-0.346 0.239-0.664 0.488-0.913s0.567-0.419 0.913-0.488c0.346-0.069 0.704-0.033 1.030 0.101s0.604 0.363 0.8 0.657c0.196 0.293 0.3 0.638 0.3 0.991 0 0.473-0.188 0.926-0.522 1.261s-0.788 0.522-1.261 0.522z"></path>
</symbol>

<!-- subcribe -->
<symbol id="icons-subscribe" viewBox="0 0 38 32">
<path d="M19.819 6.625c-0.142 0.113-0.318 0.175-0.5 0.175h-14.919c-1.008 0-1.974 0.4-2.687 1.113s-1.113 1.679-1.113 2.687v7.6c0 1.008 0.4 1.974 1.113 2.687s1.679 1.113 2.687 1.113h1.1c0.442 0 0.8 0.358 0.8 0.8v6.8c0 0.504 0.2 0.987 0.556 1.344s0.84 0.556 1.343 0.556h3.8c0.504 0 0.987-0.2 1.344-0.556s0.556-0.84 0.556-1.344v-6.8c0-0.442 0.358-0.8 0.8-0.8h4.619c0.182 0 0.358 0.062 0.5 0.175l7.981 6.385c0.524 0.419 1.3 0.046 1.3-0.625v-27.071c0-0.671-0.776-1.044-1.3-0.625l-7.981 6.385zM37.65 14.4c0 2.82-1.374 5.41-3.649 6.965-0.487 0.332-1.101-0.047-1.101-0.637v-12.645c0-0.592 0.619-0.971 1.106-0.634 2.261 1.567 3.644 4.152 3.644 6.951z"></path>
<path d="M19.819 6.625c-0.142 0.113-0.318 0.175-0.5 0.175h-14.919c-1.008 0-1.974 0.4-2.687 1.113s-1.113 1.679-1.113 2.687v7.6c0 1.008 0.4 1.974 1.113 2.687s1.679 1.113 2.687 1.113h1.1c0.442 0 0.8 0.358 0.8 0.8v6.8c0 0.504 0.2 0.987 0.556 1.344s0.84 0.556 1.343 0.556h3.8c0.504 0 0.987-0.2 1.344-0.556s0.556-0.84 0.556-1.344v-6.8c0-0.442 0.358-0.8 0.8-0.8h4.619c0.182 0 0.358 0.062 0.5 0.175l7.981 6.385c0.524 0.419 1.3 0.046 1.3-0.625v-27.071c0-0.671-0.776-1.044-1.3-0.625l-7.981 6.385zM37.65 14.4c0 2.82-1.374 5.41-3.649 6.965-0.487 0.332-1.101-0.047-1.101-0.637v-12.645c0-0.592 0.619-0.971 1.106-0.634 2.261 1.567 3.644 4.152 3.644 6.951z"></path>
</symbol>

<!-- user -->
<symbol id="icons-user" viewBox="0 0 61 32">
<path stroke-linejoin="round" stroke-linecap="round" stroke-miterlimit="4" stroke-width="2.6667" d="M37.333 28v-2.667c0-1.415-0.562-2.771-1.562-3.771s-2.357-1.562-3.771-1.562h-9.333c-1.414 0-2.771 0.562-3.771 1.562s-1.562 2.357-1.562 3.771v2.667"></path>
<path stroke-linejoin="round" stroke-linecap="round" stroke-miterlimit="4" stroke-width="2.6667" d="M37.333 28v-2.667c0-1.415-0.562-2.771-1.562-3.771s-2.357-1.562-3.771-1.562h-9.333c-1.414 0-2.771 0.562-3.771 1.562s-1.562 2.357-1.562 3.771v2.667"></path>
<path stroke-linejoin="round" stroke-linecap="round" stroke-miterlimit="4" stroke-width="2.6667" d="M27.333 14.667c2.945 0 5.333-2.388 5.333-5.333s-2.388-5.333-5.333-5.333c-2.946 0-5.333 2.388-5.333 5.333s2.388 5.333 5.333 5.333z"></path>
<path stroke-linejoin="round" stroke-linecap="round" stroke-miterlimit="4" stroke-width="2.6667" d="M27.333 14.667c2.945 0 5.333-2.388 5.333-5.333s-2.388-5.333-5.333-5.333c-2.946 0-5.333 2.388-5.333 5.333s2.388 5.333 5.333 5.333z"></path>
<path stroke-linejoin="round" stroke-linecap="round" stroke-miterlimit="4" stroke-width="2.6667" d="M26.667 10.667v8"></path>
<path stroke-linejoin="round" stroke-linecap="round" stroke-miterlimit="4" stroke-width="2.6667" d="M26.667 10.667v8"></path>
<path stroke-linejoin="round" stroke-linecap="round" stroke-miterlimit="4" stroke-width="2.6667" d="M46.667 14.667h-8"></path>
<path stroke-linejoin="round" stroke-linecap="round" stroke-miterlimit="4" stroke-width="2.6667" d="M46.667 14.667h-8"></path>
</symbol>

<!-- lighing -->
<symbol id="icons-lighting" viewBox="0 0 32 32">
<path d="M12.667 1.333c-0.288 0-0.569 0.094-0.8 0.267s-0.399 0.416-0.48 0.693l-4.667 16c-0.058 0.199-0.069 0.408-0.032 0.612s0.121 0.396 0.245 0.561c0.124 0.166 0.285 0.3 0.47 0.393s0.389 0.141 0.596 0.141h5.156l-1.147 9.168c-0.038 0.298 0.026 0.601 0.182 0.858s0.394 0.454 0.676 0.559c0.282 0.105 0.591 0.111 0.877 0.018s0.532-0.28 0.699-0.53l10.667-16c0.134-0.201 0.211-0.434 0.223-0.675s-0.042-0.481-0.156-0.694c-0.114-0.213-0.283-0.391-0.491-0.515s-0.444-0.19-0.685-0.19h-4.743l3.324-8.865c0.076-0.202 0.101-0.419 0.075-0.632s-0.105-0.418-0.227-0.595c-0.123-0.177-0.286-0.322-0.477-0.422s-0.403-0.152-0.618-0.152h-8.667z"></path>
<path d="M12.667 1.333c-0.288 0-0.569 0.094-0.8 0.267s-0.399 0.416-0.48 0.693l-4.667 16c-0.058 0.199-0.069 0.408-0.032 0.612s0.121 0.396 0.245 0.561c0.124 0.166 0.285 0.3 0.47 0.393s0.389 0.141 0.596 0.141h5.156l-1.147 9.168c-0.038 0.298 0.026 0.601 0.182 0.858s0.394 0.454 0.676 0.559c0.282 0.105 0.591 0.111 0.877 0.018s0.532-0.28 0.699-0.53l10.667-16c0.134-0.201 0.211-0.434 0.223-0.675s-0.042-0.481-0.156-0.694c-0.114-0.213-0.283-0.391-0.491-0.515s-0.444-0.19-0.685-0.19h-4.743l3.324-8.865c0.076-0.202 0.101-0.419 0.075-0.632s-0.105-0.418-0.227-0.595c-0.123-0.177-0.286-0.322-0.477-0.422s-0.403-0.152-0.618-0.152h-8.667z"></path>
</symbol>

<!-- paperclipper -->
<symbol id="icons-paperclip" viewBox="0 0 28 32">
<path d="M22.762 5.237c-1.525-1.525-4-1.525-5.525 0l-11.5 11.5c-2.631 2.631-2.631 6.894 0 9.525s6.894 2.631 9.525 0l9.5-9.5c0.681-0.681 1.794-0.681 2.475 0s0.681 1.794 0 2.475l-9.5 9.5c-4 4-10.475 4-14.475 0s-4-10.475 0-14.475l11.5-11.5c2.894-2.894 7.581-2.894 10.475 0s2.894 7.581 0 10.475l-11 11c-1.787 1.788-4.688 1.788-6.475 0s-1.787-4.688 0-6.475l9-9c0.681-0.681 1.794-0.681 2.475 0s0.681 1.794 0 2.475l-9 9c-0.419 0.419-0.419 1.106 0 1.525s1.106 0.419 1.525 0l11-11c1.525-1.525 1.525-4 0-5.525z"></path>
</symbol>


</svg>
</defs>
</svg>