<svg width="41" height="41" viewBox="0 0 41 41" fill="none" xmlns="http://www.w3.org/2000/svg">
<g id="iconamoon:lightning-2-fill">
<g id="Vector">
<path fill-rule="evenodd" clip-rule="evenodd" d="M16.2292 1.70834C15.8596 1.70834 15.4999 1.82823 15.2042 2.05001C14.9085 2.27179 14.6927 2.5835 14.5892 2.93834L8.61002 23.4383C8.53576 23.6929 8.5218 23.9613 8.56924 24.2223C8.61668 24.4832 8.72423 24.7295 8.88335 24.9417C9.04248 25.1538 9.24882 25.326 9.48603 25.4447C9.72324 25.5633 9.98481 25.625 10.25 25.625H16.8561L15.387 37.3715C15.3386 37.7538 15.4208 38.1411 15.6204 38.4707C15.8199 38.8004 16.125 39.0528 16.4861 39.1872C16.8472 39.3215 17.2431 39.3299 17.6096 39.2108C17.976 39.0918 18.2915 38.8524 18.5047 38.5315L32.1714 18.0315C32.343 17.7742 32.4416 17.4751 32.4566 17.1662C32.4716 16.8573 32.4025 16.5501 32.2566 16.2774C32.1106 16.0047 31.8934 15.7767 31.6281 15.6178C31.3628 15.4589 31.0593 15.375 30.75 15.375H24.6735L28.9324 4.0163C29.0292 3.7579 29.062 3.47988 29.028 3.20602C28.994 2.93216 28.8941 2.67063 28.737 2.44379C28.5798 2.21695 28.37 2.03156 28.1256 1.90348C27.8811 1.7754 27.6093 1.70845 27.3334 1.70834H16.2292Z" fill="white"/>
<path fill-rule="evenodd" clip-rule="evenodd" d="M16.2292 1.70834C15.8596 1.70834 15.4999 1.82823 15.2042 2.05001C14.9085 2.27179 14.6927 2.5835 14.5892 2.93834L8.61002 23.4383C8.53576 23.6929 8.5218 23.9613 8.56924 24.2223C8.61668 24.4832 8.72423 24.7295 8.88335 24.9417C9.04248 25.1538 9.24882 25.326 9.48603 25.4447C9.72324 25.5633 9.98481 25.625 10.25 25.625H16.8561L15.387 37.3715C15.3386 37.7538 15.4208 38.1411 15.6204 38.4707C15.8199 38.8004 16.125 39.0528 16.4861 39.1872C16.8472 39.3215 17.2431 39.3299 17.6096 39.2108C17.976 39.0918 18.2915 38.8524 18.5047 38.5315L32.1714 18.0315C32.343 17.7742 32.4416 17.4751 32.4566 17.1662C32.4716 16.8573 32.4025 16.5501 32.2566 16.2774C32.1106 16.0047 31.8934 15.7767 31.6281 15.6178C31.3628 15.4589 31.0593 15.375 30.75 15.375H24.6735L28.9324 4.0163C29.0292 3.7579 29.062 3.47988 29.028 3.20602C28.994 2.93216 28.8941 2.67063 28.737 2.44379C28.5798 2.21695 28.37 2.03156 28.1256 1.90348C27.8811 1.7754 27.6093 1.70845 27.3334 1.70834H16.2292Z" fill="url(#paint0_radial_2_87)"/>
</g>
</g>
<defs>
<radialGradient id="paint0_radial_2_87" cx="0" cy="0" r="1" gradientUnits="userSpaceOnUse" gradientTransform="translate(20.5001 20.5014) rotate(81.0135) scale(34.7895 31.196)">
<stop stop-color="#FFC107"/>
<stop offset="1" stop-color="#FFDB6F"/>
</radialGradient>
</defs>
</svg>
