<svg width="53" height="53" viewBox="0 0 53 53" fill="none" xmlns="http://www.w3.org/2000/svg">
<g id="Vector">
<path d="M26.5 0.906251C22.0813 0.905286 17.7376 2.04834 13.8917 4.22416C10.0459 6.39997 6.82883 9.53442 4.55375 13.3224C2.27868 17.1104 1.02307 21.4229 0.909145 25.8401C0.795219 30.2573 1.82686 34.6288 3.90364 38.5291L1.11048 46.9086C0.879113 47.6023 0.845536 48.3468 1.01351 49.0586C1.18149 49.7704 1.54438 50.4213 2.06151 50.9385C2.57864 51.4556 3.22958 51.8185 3.94136 51.9865C4.65314 52.1544 5.39764 52.1209 6.09142 51.8895L14.4709 49.0963C17.9033 50.922 21.7066 51.9417 25.592 52.078C29.4773 52.2143 33.3427 51.4637 36.8946 49.8832C40.4466 48.3026 43.5918 45.9336 46.0915 42.956C48.5912 39.9784 50.3797 36.4705 51.3213 32.6984C52.2629 28.9264 52.3327 24.9895 51.5256 21.1864C50.7184 17.3834 49.0555 13.8142 46.663 10.7498C44.2705 7.68539 41.2113 5.2063 37.7177 3.5007C34.224 1.79511 30.3877 0.907845 26.5 0.906251ZM15.6718 29.4531C15.0878 29.4531 14.5168 29.2799 14.0312 28.9554C13.5455 28.6309 13.167 28.1697 12.9435 27.6301C12.72 27.0905 12.6615 26.4967 12.7755 25.9239C12.8894 25.351 13.1707 24.8248 13.5837 24.4118C13.9967 23.9988 14.5229 23.7176 15.0957 23.6036C15.6686 23.4897 16.2623 23.5482 16.802 23.7717C17.3416 23.9952 17.8028 24.3737 18.1273 24.8593C18.4518 25.345 18.625 25.9159 18.625 26.5C18.625 27.2832 18.3138 28.0344 17.76 28.5882C17.2062 29.142 16.4551 29.4531 15.6718 29.4531ZM26.5 29.4531C25.9159 29.4531 25.3449 29.2799 24.8593 28.9554C24.3737 28.6309 23.9952 28.1697 23.7716 27.6301C23.5481 27.0905 23.4896 26.4967 23.6036 25.9239C23.7175 25.351 23.9988 24.8248 24.4118 24.4118C24.8248 23.9988 25.351 23.7176 25.9238 23.6036C26.4967 23.4897 27.0905 23.5482 27.6301 23.7717C28.1697 23.9952 28.6309 24.3737 28.9554 24.8593C29.2799 25.345 29.4531 25.9159 29.4531 26.5C29.4531 27.2832 29.142 28.0344 28.5881 28.5882C28.0343 29.142 27.2832 29.4531 26.5 29.4531ZM37.3281 29.4531C36.744 29.4531 36.1731 29.2799 35.6874 28.9554C35.2018 28.6309 34.8233 28.1697 34.5998 27.6301C34.3763 27.0905 34.3178 26.4967 34.4317 25.9239C34.5457 25.351 34.8269 24.8248 35.2399 24.4118C35.6529 23.9988 36.1791 23.7176 36.752 23.6036C37.3248 23.4897 37.9186 23.5482 38.4582 23.7717C38.9978 23.9952 39.459 24.3737 39.7835 24.8593C40.108 25.345 40.2812 25.9159 40.2812 26.5C40.2812 27.2832 39.9701 28.0344 39.4163 28.5882C38.8624 29.142 38.1113 29.4531 37.3281 29.4531Z" fill="white"/>
<path d="M26.5 0.906251C22.0813 0.905286 17.7376 2.04834 13.8917 4.22416C10.0459 6.39997 6.82883 9.53442 4.55375 13.3224C2.27868 17.1104 1.02307 21.4229 0.909145 25.8401C0.795219 30.2573 1.82686 34.6288 3.90364 38.5291L1.11048 46.9086C0.879113 47.6023 0.845536 48.3468 1.01351 49.0586C1.18149 49.7704 1.54438 50.4213 2.06151 50.9385C2.57864 51.4556 3.22958 51.8185 3.94136 51.9865C4.65314 52.1544 5.39764 52.1209 6.09142 51.8895L14.4709 49.0963C17.9033 50.922 21.7066 51.9417 25.592 52.078C29.4773 52.2143 33.3427 51.4637 36.8946 49.8832C40.4466 48.3026 43.5918 45.9336 46.0915 42.956C48.5912 39.9784 50.3797 36.4705 51.3213 32.6984C52.2629 28.9264 52.3327 24.9895 51.5256 21.1864C50.7184 17.3834 49.0555 13.8142 46.663 10.7498C44.2705 7.68539 41.2113 5.2063 37.7177 3.5007C34.224 1.79511 30.3877 0.907845 26.5 0.906251ZM15.6718 29.4531C15.0878 29.4531 14.5168 29.2799 14.0312 28.9554C13.5455 28.6309 13.167 28.1697 12.9435 27.6301C12.72 27.0905 12.6615 26.4967 12.7755 25.9239C12.8894 25.351 13.1707 24.8248 13.5837 24.4118C13.9967 23.9988 14.5229 23.7176 15.0957 23.6036C15.6686 23.4897 16.2623 23.5482 16.802 23.7717C17.3416 23.9952 17.8028 24.3737 18.1273 24.8593C18.4518 25.345 18.625 25.9159 18.625 26.5C18.625 27.2832 18.3138 28.0344 17.76 28.5882C17.2062 29.142 16.4551 29.4531 15.6718 29.4531ZM26.5 29.4531C25.9159 29.4531 25.3449 29.2799 24.8593 28.9554C24.3737 28.6309 23.9952 28.1697 23.7716 27.6301C23.5481 27.0905 23.4896 26.4967 23.6036 25.9239C23.7175 25.351 23.9988 24.8248 24.4118 24.4118C24.8248 23.9988 25.351 23.7176 25.9238 23.6036C26.4967 23.4897 27.0905 23.5482 27.6301 23.7717C28.1697 23.9952 28.6309 24.3737 28.9554 24.8593C29.2799 25.345 29.4531 25.9159 29.4531 26.5C29.4531 27.2832 29.142 28.0344 28.5881 28.5882C28.0343 29.142 27.2832 29.4531 26.5 29.4531ZM37.3281 29.4531C36.744 29.4531 36.1731 29.2799 35.6874 28.9554C35.2018 28.6309 34.8233 28.1697 34.5998 27.6301C34.3763 27.0905 34.3178 26.4967 34.4317 25.9239C34.5457 25.351 34.8269 24.8248 35.2399 24.4118C35.6529 23.9988 36.1791 23.7176 36.752 23.6036C37.3248 23.4897 37.9186 23.5482 38.4582 23.7717C38.9978 23.9952 39.459 24.3737 39.7835 24.8593C40.108 25.345 40.2812 25.9159 40.2812 26.5C40.2812 27.2832 39.9701 28.0344 39.4163 28.5882C38.8624 29.142 38.1113 29.4531 37.3281 29.4531Z" fill="url(#paint0_radial_8_431)"/>
</g>
<defs>
<radialGradient id="paint0_radial_8_431" cx="0" cy="0" r="1" gradientUnits="userSpaceOnUse" gradientTransform="translate(26.4919 26.5) rotate(76.0446) scale(48.2206 65.5947)">
<stop stop-color="#FFC107"/>
<stop offset="1" stop-color="#FFDB6F"/>
</radialGradient>
</defs>
</svg>
