<svg width="56" height="56" viewBox="0 0 56 56" fill="none" xmlns="http://www.w3.org/2000/svg">
<g id="streamline:target-solid" clip-path="url(#clip0_2_106)">
<g id="Vector">
<path fill-rule="evenodd" clip-rule="evenodd" d="M45.9399 1.51598C45.8546 1.1721 45.6795 0.85705 45.4325 0.603071C45.1854 0.349092 44.8753 0.165297 44.534 0.0704899C44.1926 -0.0243171 43.8321 -0.0267331 43.4895 0.0634891C43.1469 0.153711 42.8344 0.333333 42.5839 0.583978L34.5839 8.58398C34.34 8.82847 34.1635 9.13198 34.0717 9.46495C33.9798 9.79792 33.9758 10.149 34.0599 10.484L35.4999 16.26C35.481 16.2784 35.4624 16.2971 35.4439 16.316L25.8799 25.88C25.35 26.4487 25.0615 27.2009 25.0752 27.9781C25.089 28.7553 25.4038 29.4968 25.9535 30.0465C26.5031 30.5961 27.2447 30.911 28.0219 30.9247C28.7991 30.9384 29.5513 30.6499 30.1199 30.12L39.6919 20.56C39.7109 20.5402 39.7295 20.5202 39.7479 20.5L45.5199 21.944C45.8549 22.0281 46.206 22.0241 46.539 21.9323C46.8719 21.8404 47.1754 21.6639 47.4199 21.42L55.4199 13.42C55.6716 13.1697 55.8522 12.8569 55.943 12.5137C56.0338 12.1706 56.0317 11.8094 55.9368 11.4673C55.8419 11.1253 55.6577 10.8146 55.4031 10.5673C55.1485 10.32 54.8326 10.1449 54.4879 10.06L47.6519 8.35598L45.9399 1.51598ZM29.2679 3.03598C29.3229 3.82946 29.0605 4.61228 28.5384 5.21235C28.0164 5.81242 27.2774 6.18061 26.4839 6.23598C22.3047 6.5256 18.2965 8.0089 14.9356 10.5096C11.5746 13.0104 9.00219 16.4234 7.524 20.3432C6.04581 24.2629 5.72397 28.5247 6.59674 32.622C7.4695 36.7193 9.50017 40.4799 12.4475 43.457C15.3947 46.4342 19.1347 48.5026 23.2231 49.4165C27.3114 50.3305 31.5762 50.0516 35.5106 48.6129C39.4451 47.1743 42.8838 44.6364 45.4182 41.3008C47.9527 37.9651 49.4763 33.9721 49.8079 29.796C49.8711 29.0024 50.2468 28.2665 50.8526 27.75C51.4583 27.2335 52.2444 26.9789 53.0379 27.042C53.8315 27.1051 54.5674 27.4809 55.0839 28.0866C55.6004 28.6923 55.8551 29.4784 55.7919 30.272C55.3686 35.5928 53.4268 40.6804 50.1972 44.9301C46.9676 49.1799 42.5859 52.4132 37.5727 54.2459C32.5595 56.0787 27.1256 56.4339 21.9165 55.2692C16.7075 54.1046 11.9422 51.4691 8.18688 47.6759C4.43157 43.8827 1.84407 39.0912 0.731792 33.8707C-0.380484 28.6501 0.0292207 23.2201 1.91223 18.2256C3.79524 13.231 7.0724 8.88205 11.3544 5.69525C15.6363 2.50846 20.7431 0.617826 26.0679 0.247978C26.8614 0.193023 27.6443 0.455419 28.2443 0.977479C28.8444 1.49954 29.2126 2.24253 29.2679 3.03598ZM26.5799 16.232C26.7237 16.5989 26.7937 16.9905 26.7861 17.3845C26.7784 17.7785 26.6933 18.1671 26.5354 18.5281C26.3775 18.8892 26.1501 19.2156 25.866 19.4887C25.582 19.7619 25.2469 19.9764 24.8799 20.12C23.5681 20.6346 22.4052 21.4679 21.4963 22.5448C20.5874 23.6216 19.9612 24.908 19.6742 26.2876C19.3873 27.6672 19.4487 29.0966 19.8528 30.4465C20.257 31.7964 20.9912 33.0244 21.9891 34.0194C22.9869 35.0143 24.217 35.7449 25.5681 36.1451C26.9192 36.5454 28.3488 36.6026 29.7275 36.3116C31.1063 36.0207 32.3908 35.3907 33.465 34.4787C34.5392 33.5666 35.3692 32.4013 35.8799 31.088C36.0228 30.7208 36.2366 30.3854 36.5091 30.1008C36.7817 29.8163 37.1075 29.5882 37.4682 29.4296C37.8289 29.271 38.2172 29.185 38.6111 29.1765C39.005 29.1679 39.3968 29.2371 39.7639 29.38C40.1311 29.5229 40.4666 29.7367 40.7511 30.0092C41.0357 30.2817 41.2637 30.6076 41.4223 30.9682C41.581 31.3289 41.667 31.7173 41.6755 32.1112C41.684 32.5051 41.6148 32.8968 41.4719 33.264C40.5996 35.5067 39.182 37.4967 37.3474 39.0539C35.5127 40.6112 33.3189 41.6866 30.9643 42.1831C28.6096 42.6796 26.1683 42.5814 23.8612 41.8974C21.554 41.2133 19.4537 39.9651 17.7501 38.2655C16.0465 36.5659 14.7933 34.4685 14.1039 32.163C13.4145 29.8574 13.3106 27.4164 13.8015 25.0606C14.2924 22.7047 15.3628 20.5084 16.9157 18.6701C18.4687 16.8319 20.4553 15.4096 22.6959 14.532C23.4365 14.2429 24.2615 14.2596 24.9897 14.5784C25.7179 14.8971 26.2899 15.4918 26.5799 16.232Z" fill="white"/>
<path fill-rule="evenodd" clip-rule="evenodd" d="M45.9399 1.51598C45.8546 1.1721 45.6795 0.85705 45.4325 0.603071C45.1854 0.349092 44.8753 0.165297 44.534 0.0704899C44.1926 -0.0243171 43.8321 -0.0267331 43.4895 0.0634891C43.1469 0.153711 42.8344 0.333333 42.5839 0.583978L34.5839 8.58398C34.34 8.82847 34.1635 9.13198 34.0717 9.46495C33.9798 9.79792 33.9758 10.149 34.0599 10.484L35.4999 16.26C35.481 16.2784 35.4624 16.2971 35.4439 16.316L25.8799 25.88C25.35 26.4487 25.0615 27.2009 25.0752 27.9781C25.089 28.7553 25.4038 29.4968 25.9535 30.0465C26.5031 30.5961 27.2447 30.911 28.0219 30.9247C28.7991 30.9384 29.5513 30.6499 30.1199 30.12L39.6919 20.56C39.7109 20.5402 39.7295 20.5202 39.7479 20.5L45.5199 21.944C45.8549 22.0281 46.206 22.0241 46.539 21.9323C46.8719 21.8404 47.1754 21.6639 47.4199 21.42L55.4199 13.42C55.6716 13.1697 55.8522 12.8569 55.943 12.5137C56.0338 12.1706 56.0317 11.8094 55.9368 11.4673C55.8419 11.1253 55.6577 10.8146 55.4031 10.5673C55.1485 10.32 54.8326 10.1449 54.4879 10.06L47.6519 8.35598L45.9399 1.51598ZM29.2679 3.03598C29.3229 3.82946 29.0605 4.61228 28.5384 5.21235C28.0164 5.81242 27.2774 6.18061 26.4839 6.23598C22.3047 6.5256 18.2965 8.0089 14.9356 10.5096C11.5746 13.0104 9.00219 16.4234 7.524 20.3432C6.04581 24.2629 5.72397 28.5247 6.59674 32.622C7.4695 36.7193 9.50017 40.4799 12.4475 43.457C15.3947 46.4342 19.1347 48.5026 23.2231 49.4165C27.3114 50.3305 31.5762 50.0516 35.5106 48.6129C39.4451 47.1743 42.8838 44.6364 45.4182 41.3008C47.9527 37.9651 49.4763 33.9721 49.8079 29.796C49.8711 29.0024 50.2468 28.2665 50.8526 27.75C51.4583 27.2335 52.2444 26.9789 53.0379 27.042C53.8315 27.1051 54.5674 27.4809 55.0839 28.0866C55.6004 28.6923 55.8551 29.4784 55.7919 30.272C55.3686 35.5928 53.4268 40.6804 50.1972 44.9301C46.9676 49.1799 42.5859 52.4132 37.5727 54.2459C32.5595 56.0787 27.1256 56.4339 21.9165 55.2692C16.7075 54.1046 11.9422 51.4691 8.18688 47.6759C4.43157 43.8827 1.84407 39.0912 0.731792 33.8707C-0.380484 28.6501 0.0292207 23.2201 1.91223 18.2256C3.79524 13.231 7.0724 8.88205 11.3544 5.69525C15.6363 2.50846 20.7431 0.617826 26.0679 0.247978C26.8614 0.193023 27.6443 0.455419 28.2443 0.977479C28.8444 1.49954 29.2126 2.24253 29.2679 3.03598ZM26.5799 16.232C26.7237 16.5989 26.7937 16.9905 26.7861 17.3845C26.7784 17.7785 26.6933 18.1671 26.5354 18.5281C26.3775 18.8892 26.1501 19.2156 25.866 19.4887C25.582 19.7619 25.2469 19.9764 24.8799 20.12C23.5681 20.6346 22.4052 21.4679 21.4963 22.5448C20.5874 23.6216 19.9612 24.908 19.6742 26.2876C19.3873 27.6672 19.4487 29.0966 19.8528 30.4465C20.257 31.7964 20.9912 33.0244 21.9891 34.0194C22.9869 35.0143 24.217 35.7449 25.5681 36.1451C26.9192 36.5454 28.3488 36.6026 29.7275 36.3116C31.1063 36.0207 32.3908 35.3907 33.465 34.4787C34.5392 33.5666 35.3692 32.4013 35.8799 31.088C36.0228 30.7208 36.2366 30.3854 36.5091 30.1008C36.7817 29.8163 37.1075 29.5882 37.4682 29.4296C37.8289 29.271 38.2172 29.185 38.6111 29.1765C39.005 29.1679 39.3968 29.2371 39.7639 29.38C40.1311 29.5229 40.4666 29.7367 40.7511 30.0092C41.0357 30.2817 41.2637 30.6076 41.4223 30.9682C41.581 31.3289 41.667 31.7173 41.6755 32.1112C41.684 32.5051 41.6148 32.8968 41.4719 33.264C40.5996 35.5067 39.182 37.4967 37.3474 39.0539C35.5127 40.6112 33.3189 41.6866 30.9643 42.1831C28.6096 42.6796 26.1683 42.5814 23.8612 41.8974C21.554 41.2133 19.4537 39.9651 17.7501 38.2655C16.0465 36.5659 14.7933 34.4685 14.1039 32.163C13.4145 29.8574 13.3106 27.4164 13.8015 25.0606C14.2924 22.7047 15.3628 20.5084 16.9157 18.6701C18.4687 16.8319 20.4553 15.4096 22.6959 14.532C23.4365 14.2429 24.2615 14.2596 24.9897 14.5784C25.7179 14.8971 26.2899 15.4918 26.5799 16.232Z" fill="url(#paint0_radial_2_106)"/>
</g>
</g>
<defs>
<radialGradient id="paint0_radial_2_106" cx="0" cy="0" r="1" gradientUnits="userSpaceOnUse" gradientTransform="translate(28.0647 27.9693) rotate(76.0561) scale(52.6983 71.631)">
<stop stop-color="#FFC107"/>
<stop offset="1" stop-color="#FFDB6F"/>
</radialGradient>
<clipPath id="clip0_2_106">
<rect width="56" height="56" fill="white"/>
</clipPath>
</defs>
</svg>
