<svg width="48" height="40" viewBox="0 0 48 40" fill="none" xmlns="http://www.w3.org/2000/svg">
<g id="Vector">
<path d="M24.7739 8.28087C24.5966 8.42272 24.3763 8.5 24.1492 8.5H5.5C4.24022 8.5 3.03204 9.00045 2.14124 9.89124C1.25044 10.782 0.75 11.9902 0.75 13.25V22.75C0.75 24.0098 1.25044 25.218 2.14124 26.1088C3.03204 26.9996 4.24022 27.5 5.5 27.5H6.875C7.42728 27.5 7.875 27.9477 7.875 28.5V37C7.875 37.6299 8.12522 38.234 8.57062 38.6794C9.01602 39.1248 9.62011 39.375 10.25 39.375H15C15.6299 39.375 16.234 39.1248 16.6794 38.6794C17.1248 38.234 17.375 37.6299 17.375 37V28.5C17.375 27.9477 17.8227 27.5 18.375 27.5H24.1492C24.3763 27.5 24.5966 27.5773 24.7739 27.7191L34.7503 35.7002C35.4051 36.2241 36.375 35.7579 36.375 34.9194V1.08062C36.375 0.242117 35.4051 -0.224055 34.7503 0.299756L24.7739 8.28087ZM47.0625 18C47.0625 21.5245 45.3454 24.7628 42.501 26.7059C41.8928 27.1213 41.125 26.6466 41.125 25.91V10.1039C41.125 9.36393 41.8989 8.88978 42.507 9.31138C45.3328 11.2706 47.0625 14.5016 47.0625 18Z" fill="white"/>
<path d="M24.7739 8.28087C24.5966 8.42272 24.3763 8.5 24.1492 8.5H5.5C4.24022 8.5 3.03204 9.00045 2.14124 9.89124C1.25044 10.782 0.75 11.9902 0.75 13.25V22.75C0.75 24.0098 1.25044 25.218 2.14124 26.1088C3.03204 26.9996 4.24022 27.5 5.5 27.5H6.875C7.42728 27.5 7.875 27.9477 7.875 28.5V37C7.875 37.6299 8.12522 38.234 8.57062 38.6794C9.01602 39.1248 9.62011 39.375 10.25 39.375H15C15.6299 39.375 16.234 39.1248 16.6794 38.6794C17.1248 38.234 17.375 37.6299 17.375 37V28.5C17.375 27.9477 17.8227 27.5 18.375 27.5H24.1492C24.3763 27.5 24.5966 27.5773 24.7739 27.7191L34.7503 35.7002C35.4051 36.2241 36.375 35.7579 36.375 34.9194V1.08062C36.375 0.242117 35.4051 -0.224055 34.7503 0.299756L24.7739 8.28087ZM47.0625 18C47.0625 21.5245 45.3454 24.7628 42.501 26.7059C41.8928 27.1213 41.125 26.6466 41.125 25.91V10.1039C41.125 9.36393 41.8989 8.88978 42.507 9.31138C45.3328 11.2706 47.0625 14.5016 47.0625 18Z" fill="url(#paint0_radial_8_440)"/>
</g>
<defs>
<radialGradient id="paint0_radial_8_440" cx="0" cy="0" r="1" gradientUnits="userSpaceOnUse" gradientTransform="translate(23.9063 19.1875) rotate(74.0885) scale(38.3828 58.8152)">
<stop stop-color="#FFC107"/>
<stop offset="1" stop-color="#FFDB6F"/>
</radialGradient>
</defs>
</svg>
