<svg width="87" height="46" viewBox="0 0 87 46" fill="none" xmlns="http://www.w3.org/2000/svg">
<g id="user-plus">
<g id="Vector">
<path d="M53.6667 40.25V36.4167C53.6667 34.3833 52.859 32.4333 51.4212 30.9955C49.9835 29.5577 48.0334 28.75 46.0001 28.75H32.5834C30.5501 28.75 28.6 29.5577 27.1623 30.9955C25.7245 32.4333 24.9167 34.3833 24.9167 36.4167V40.25" stroke="white" stroke-width="3.83333" stroke-linecap="round" stroke-linejoin="round"/>
<path d="M53.6667 40.25V36.4167C53.6667 34.3833 52.859 32.4333 51.4212 30.9955C49.9835 29.5577 48.0334 28.75 46.0001 28.75H32.5834C30.5501 28.75 28.6 29.5577 27.1623 30.9955C25.7245 32.4333 24.9167 34.3833 24.9167 36.4167V40.25" stroke="url(#paint0_radial_8_448)" stroke-width="3.83333" stroke-linecap="round" stroke-linejoin="round"/>
</g>
<g id="Vector_2">
<path d="M39.2917 21.0833C43.5258 21.0833 46.9583 17.6508 46.9583 13.4167C46.9583 9.18248 43.5258 5.75 39.2917 5.75C35.0575 5.75 31.625 9.18248 31.625 13.4167C31.625 17.6508 35.0575 21.0833 39.2917 21.0833Z" stroke="white" stroke-width="3.83333" stroke-linecap="round" stroke-linejoin="round"/>
<path d="M39.2917 21.0833C43.5258 21.0833 46.9583 17.6508 46.9583 13.4167C46.9583 9.18248 43.5258 5.75 39.2917 5.75C35.0575 5.75 31.625 9.18248 31.625 13.4167C31.625 17.6508 35.0575 21.0833 39.2917 21.0833Z" stroke="url(#paint1_radial_8_448)" stroke-width="3.83333" stroke-linecap="round" stroke-linejoin="round"/>
</g>
<g id="Vector_3">
<path d="M38.3333 15.3333V26.8333" stroke="white" stroke-width="3.83333" stroke-linecap="round" stroke-linejoin="round"/>
<path d="M38.3333 15.3333V26.8333" stroke="url(#paint2_radial_8_448)" stroke-width="3.83333" stroke-linecap="round" stroke-linejoin="round"/>
</g>
<g id="Vector_4">
<path d="M67.0833 21.0833H55.5833" stroke="white" stroke-width="3.83333" stroke-linecap="round" stroke-linejoin="round"/>
<path d="M67.0833 21.0833H55.5833" stroke="url(#paint3_radial_8_448)" stroke-width="3.83333" stroke-linecap="round" stroke-linejoin="round"/>
</g>
</g>
<defs>
<radialGradient id="paint0_radial_8_448" cx="0" cy="0" r="1" gradientUnits="userSpaceOnUse" gradientTransform="translate(39.2917 34.5) rotate(58.1467) scale(12.3778 32.2485)">
<stop stop-color="#FFC107"/>
<stop offset="1" stop-color="#FFDB6F"/>
</radialGradient>
<radialGradient id="paint1_radial_8_448" cx="0" cy="0" r="1" gradientUnits="userSpaceOnUse" gradientTransform="translate(39.2917 13.4167) rotate(76.0433) scale(14.4447 19.6508)">
<stop stop-color="#FFC107"/>
<stop offset="1" stop-color="#FFDB6F"/>
</radialGradient>
<radialGradient id="paint2_radial_8_448" cx="0" cy="0" r="1" gradientUnits="userSpaceOnUse" gradientTransform="translate(38.8333 21.0833) rotate(88.762) scale(10.5161 1.32025)">
<stop stop-color="#FFC107"/>
<stop offset="1" stop-color="#FFDB6F"/>
</radialGradient>
<radialGradient id="paint3_radial_8_448" cx="0" cy="0" r="1" gradientUnits="userSpaceOnUse" gradientTransform="translate(61.3333 21.5833) rotate(19.2844) scale(2.76825 5.01543)">
<stop stop-color="#FFC107"/>
<stop offset="1" stop-color="#FFDB6F"/>
</radialGradient>
</defs>
</svg>
