<svg width="56" height="56" viewBox="0 0 56 56" fill="none" xmlns="http://www.w3.org/2000/svg">
<g id="ph:wallet-bold">
<g id="Vector">
<path d="M42.875 29.75C42.875 30.4422 42.6698 31.1189 42.2852 31.6945C41.9006 32.2701 41.354 32.7187 40.7144 32.9836C40.0749 33.2485 39.3711 33.3178 38.6922 33.1827C38.0133 33.0477 37.3896 32.7144 36.9002 32.2249C36.4107 31.7354 36.0773 31.1117 35.9423 30.4328C35.8072 29.7539 35.8765 29.0501 36.1414 28.4106C36.4064 27.7711 36.855 27.2244 37.4305 26.8399C38.0061 26.4553 38.6828 26.25 39.375 26.25C40.3033 26.25 41.1935 26.6187 41.8499 27.2751C42.5063 27.9315 42.875 28.8217 42.875 29.75ZM51.625 21.875V39.375C51.625 41.2315 50.8875 43.012 49.5748 44.3247C48.262 45.6375 46.4815 46.375 44.625 46.375H13.125C11.2685 46.375 9.48803 45.6375 8.17528 44.3247C6.86252 43.012 6.12503 41.2315 6.12503 39.375V13.3263C6.0981 12.3902 6.25927 11.4583 6.59898 10.5856C6.93869 9.71298 7.45003 8.91736 8.10274 8.24589C8.75545 7.57441 9.53626 7.04072 10.3989 6.67642C11.2616 6.31212 12.1886 6.12461 13.125 6.125H42C42.6962 6.125 43.3639 6.40156 43.8562 6.89385C44.3485 7.38613 44.625 8.05381 44.625 8.75C44.625 9.44619 44.3485 10.1139 43.8562 10.6062C43.3639 11.0984 42.6962 11.375 42 11.375H13.125C12.8903 11.3749 12.658 11.422 12.4419 11.5134C12.2258 11.6049 12.0303 11.7389 11.867 11.9075C11.7038 12.0761 11.5761 12.2758 11.4915 12.4947C11.407 12.7136 11.3674 12.9473 11.375 13.1819V13.1994C11.4118 13.6627 11.6244 14.0945 11.9693 14.406C12.3143 14.7176 12.7653 14.8854 13.23 14.875H44.625C46.4815 14.875 48.262 15.6125 49.5748 16.9253C50.8875 18.238 51.625 20.0185 51.625 21.875ZM46.375 21.875C46.375 21.4109 46.1907 20.9658 45.8625 20.6376C45.5343 20.3094 45.0892 20.125 44.625 20.125H13.23C12.6042 20.1253 11.9808 20.0459 11.375 19.8888V39.375C11.375 39.8391 11.5594 40.2842 11.8876 40.6124C12.2158 40.9406 12.6609 41.125 13.125 41.125H44.625C45.0892 41.125 45.5343 40.9406 45.8625 40.6124C46.1907 40.2842 46.375 39.8391 46.375 39.375V21.875Z" fill="white"/>
<path d="M42.875 29.75C42.875 30.4422 42.6698 31.1189 42.2852 31.6945C41.9006 32.2701 41.354 32.7187 40.7144 32.9836C40.0749 33.2485 39.3711 33.3178 38.6922 33.1827C38.0133 33.0477 37.3896 32.7144 36.9002 32.2249C36.4107 31.7354 36.0773 31.1117 35.9423 30.4328C35.8072 29.7539 35.8765 29.0501 36.1414 28.4106C36.4064 27.7711 36.855 27.2244 37.4305 26.8399C38.0061 26.4553 38.6828 26.25 39.375 26.25C40.3033 26.25 41.1935 26.6187 41.8499 27.2751C42.5063 27.9315 42.875 28.8217 42.875 29.75ZM51.625 21.875V39.375C51.625 41.2315 50.8875 43.012 49.5748 44.3247C48.262 45.6375 46.4815 46.375 44.625 46.375H13.125C11.2685 46.375 9.48803 45.6375 8.17528 44.3247C6.86252 43.012 6.12503 41.2315 6.12503 39.375V13.3263C6.0981 12.3902 6.25927 11.4583 6.59898 10.5856C6.93869 9.71298 7.45003 8.91736 8.10274 8.24589C8.75545 7.57441 9.53626 7.04072 10.3989 6.67642C11.2616 6.31212 12.1886 6.12461 13.125 6.125H42C42.6962 6.125 43.3639 6.40156 43.8562 6.89385C44.3485 7.38613 44.625 8.05381 44.625 8.75C44.625 9.44619 44.3485 10.1139 43.8562 10.6062C43.3639 11.0984 42.6962 11.375 42 11.375H13.125C12.8903 11.3749 12.658 11.422 12.4419 11.5134C12.2258 11.6049 12.0303 11.7389 11.867 11.9075C11.7038 12.0761 11.5761 12.2758 11.4915 12.4947C11.407 12.7136 11.3674 12.9473 11.375 13.1819V13.1994C11.4118 13.6627 11.6244 14.0945 11.9693 14.406C12.3143 14.7176 12.7653 14.8854 13.23 14.875H44.625C46.4815 14.875 48.262 15.6125 49.5748 16.9253C50.8875 18.238 51.625 20.0185 51.625 21.875ZM46.375 21.875C46.375 21.4109 46.1907 20.9658 45.8625 20.6376C45.5343 20.3094 45.0892 20.125 44.625 20.125H13.23C12.6042 20.1253 11.9808 20.0459 11.375 19.8888V39.375C11.375 39.8391 11.5594 40.2842 11.8876 40.6124C12.2158 40.9406 12.6609 41.125 13.125 41.125H44.625C45.0892 41.125 45.5343 40.9406 45.8625 40.6124C46.1907 40.2842 46.375 39.8391 46.375 39.375V21.875Z" fill="url(#paint0_radial_2_102)"/>
</g>
</g>
<defs>
<radialGradient id="paint0_radial_2_102" cx="0" cy="0" r="1" gradientUnits="userSpaceOnUse" gradientTransform="translate(28.8736 26.25) rotate(74.3067) scale(38.2227 57.8494)">
<stop stop-color="#FFC107"/>
<stop offset="1" stop-color="#FFDB6F"/>
</radialGradient>
</defs>
</svg>
